{"title":"Doctor Who 2005 S08E03 Robot of Sherwood X265","uid":11043931,"size":559146136,"categoryP":"video","categoryS":"hd___tv_shows","magnet":"?xt=urn:btih:ecf6183433cc41011b660078dcd508b87b31789b&amp;dn=Doctor+Who+2005+S08E03+Robot+of+Sherwood+X265&amp;tr=udp%3A%2F%2Ftracker.openbittorrent.com%3A80&amp;tr=udp%3A%2F%2Fopen.demonii.com%3A1337&amp;tr=udp%3A%2F%2Ftracker.coppersurfer.tk%3A6969&amp;tr=udp%3A%2F%2Fexodus.desync.com%3A6969","seeders":0,"leechers":0,"uploader":"atm50","files":-1,"time":1410920823,"description":"In Sherwood forest, the Doctor finds an evil plan from outer space and makes an alliance with Robin Hood. With Nottingham at stake, the Doctor must decide who is real and who is fake.\n\nFormat                         : Matroska\nFile size                      : 533 MiB\nDuration                       : 45mn 48s\nOverall bit rate               : 1 627 Kbps\n\nVideo\n\nFormat                         : HEVC [X265]\nBit rate                       : 1339 Kbps\nWidth                          : 1280 pixels\nHeight                         : 720 pixels\nDisplay aspect ratio           : 16:9\nFrame rate                     : 25.000 fps\nStream size                    : 439 MiB (82%)\n\nAudio\n\nFormat                         : AC-3\nBit rate                       : 256 Kbps\nChannel(s)                     : 6 channels (5.1)\nSampling rate                  : 48.0 KHz\nBit depth                      : 16 bits\nCompression mode               : Lossy\nStream size                    : 83.9 MiB (16%)\n\nSubtitles: English by GoldenBeard from subscene","torrent":{"xt":"urn:btih:ecf6183433cc41011b660078dcd508b87b31789b","amp;dn":"Doctor+Who+2005+S08E03+Robot+of+Sherwood+X265","amp;tr":["udp%3A%2F%2Ftracker.openbittorrent.com%3A80","udp%3A%2F%2Fopen.demonii.com%3A1337","udp%3A%2F%2Ftracker.coppersurfer.tk%3A6969","udp%3A%2F%2Fexodus.desync.com%3A6969"],"infoHash":"ecf6183433cc41011b660078dcd508b87b31789b","infoHashBuffer":{"type":"Buffer","data":[236,246,24,52,51,204,65,1,27,102,0,120,220,213,8,184,123,49,120,155]},"announce":[],"urlList":[]}}